<?xml version="1.0" encoding="UTF-8" standalone="no"?>
<!-- Created with Inkscape (http://www.inkscape.org/) -->

<svg
   xmlns:dc="http://purl.org/dc/elements/1.1/"
   xmlns:cc="http://creativecommons.org/ns#"
   xmlns:rdf="http://www.w3.org/1999/02/22-rdf-syntax-ns#"
   xmlns:svg="http://www.w3.org/2000/svg"
   xmlns="http://www.w3.org/2000/svg"
   xmlns:sodipodi="http://sodipodi.sourceforge.net/DTD/sodipodi-0.dtd"
   xmlns:inkscape="http://www.inkscape.org/namespaces/inkscape"
   id="svg2"
   version="1.1"
   inkscape:version="0.48.2 r9819"
   width="1275.55"
   height="583.825"
   xml:space="preserve"
   sodipodi:docname="TEDx_fidi_women_logo.svg"><metadata
     id="metadata8"><rdf:RDF><cc:Work
         rdf:about=""><dc:format>image/svg+xml</dc:format><dc:type
           rdf:resource="http://purl.org/dc/dcmitype/StillImage" /><dc:title></dc:title></cc:Work></rdf:RDF></metadata><defs
     id="defs6"><clipPath
       clipPathUnits="userSpaceOnUse"
       id="clipPath18"><path
         d="m 0,0 10204,0 0,4670.59 -10204,0 L 0,0 z"
         id="path20" /></clipPath></defs><sodipodi:namedview
     pagecolor="#ffffff"
     bordercolor="#666666"
     borderopacity="1"
     objecttolerance="10"
     gridtolerance="10"
     guidetolerance="10"
     inkscape:pageopacity="0"
     inkscape:pageshadow="2"
     inkscape:window-width="1332"
     inkscape:window-height="806"
     id="namedview4"
     showgrid="false"
     inkscape:zoom="0.62247655"
     inkscape:cx="614.60261"
     inkscape:cy="316.84969"
     inkscape:window-x="0"
     inkscape:window-y="0"
     inkscape:window-maximized="0"
     inkscape:current-layer="g10" /><g
     id="g10"
     inkscape:groupmode="layer"
     inkscape:label="ink_ext_XXXXXX"
     transform="matrix(1.25,0,0,-1.25,0,583.825)"><g
       id="g12"
       transform="scale(0.1,0.1)"><g
         id="g14"><g
           id="g16"
           clip-path="url(#clipPath18)"><path
             d="m 0,0 10204.4,0 0,4670.59 L 0,4670.59 0,0 z"
             style="fill:#ffffff;fill-opacity:1;fill-rule:nonzero;stroke:none"
             id="path22" /><path
             d="m 603.711,1426.05 -75.668,109.05 72.109,0 40.5,-60.09 40.063,60.09 69.883,0 -75.672,-107.71 85.015,-122.41 -72.105,0 -48.07,72.55 -48.071,-72.55 -70.773,0 82.789,121.07"
             style="fill:#ee2922;fill-opacity:1;fill-rule:nonzero;stroke:none"
             id="path24" /><path
             d="m 1059.47,1345.93 -224.779,0 0,47.63 224.779,0 0,-47.63 z m 0,95.26 -224.779,0 0,47.62 224.779,0 0,-47.62"
             style="fill:#100f0d;fill-opacity:1;fill-rule:nonzero;stroke:none"
             id="path26" /><path
             d="m 1168.5,1535.1 63.2,0 0,-230.12 -63.2,0 0,230.12 z m 63.2,35.61 -63.2,0 0,52.08 63.2,0 0,-52.08"
             style="fill:#100f0d;fill-opacity:1;fill-rule:nonzero;stroke:none"
             id="path28" /><path
             d="m 1272.64,1535.1 60.09,0 0,-32.05 1.34,0 c 16.02,25.82 43.62,38.28 70.32,38.28 67.21,0 84.13,-37.83 84.13,-94.8 l 0,-141.55 -63.21,0 0,129.98 c 0,37.83 -11.13,56.52 -40.5,56.52 -34.27,0 -48.96,-19.13 -48.96,-65.87 l 0,-120.63 -63.21,0 0,230.12"
             style="fill:#100f0d;fill-opacity:1;fill-rule:nonzero;stroke:none"
             id="path30" /><path
             d="m 1636.71,1493.71 c -41.39,0 -55.64,-35.61 -55.64,-73.45 0,-36.05 16.47,-73.88 55.64,-73.88 41.84,0 54.31,36.5 54.31,74.33 0,37.39 -13.36,73 -54.31,73 z m 55.19,-159.35 -0.88,0 c -14.69,-24.92 -40.51,-35.61 -69.89,-35.61 -69.43,0 -103.26,59.65 -103.26,123.3 0,61.86 34.27,119.28 101.93,119.28 27.15,0 53.86,-11.57 68.54,-34.28 l -0.44,0 0.89,0 0,115.74 63.2,0 0,-317.81 -60.09,0 0,29.38"
             style="fill:#100f0d;fill-opacity:1;fill-rule:nonzero;stroke:none"
             id="path32" /><path
             d="m 1945.59,1444.75 c -5.79,32.04 -19.58,48.96 -50.3,48.96 -40.06,0 -51.63,-31.17 -52.52,-48.96 l 102.82,0 z m -102.82,-40.06 c 1.78,-40.06 21.37,-58.31 56.53,-58.31 25.37,0 45.85,15.58 49.85,29.82 l 55.64,0 c -17.81,-54.3 -55.64,-77.45 -107.71,-77.45 -72.56,0 -117.51,49.85 -117.51,121.07 0,68.99 47.62,121.51 117.51,121.51 78.33,0 116.17,-65.88 111.71,-136.64 l -166.02,0"
             style="fill:#100f0d;fill-opacity:1;fill-rule:nonzero;stroke:none"
             id="path34" /><path
             d="m 2208.18,1419.38 c 0,36.49 -14.69,74.33 -55.19,74.33 -41.39,0 -54.75,-36.95 -54.75,-74.33 0,-37.39 14.25,-73 55.19,-73 41.4,0 54.75,35.61 54.75,73 z m -170.92,115.72 60.09,0 0,-29.37 0.89,0 c 15.13,24.47 40.06,35.6 68.55,35.6 72.1,0 104.6,-58.31 104.6,-123.73 0,-61.42 -33.83,-118.85 -101.04,-118.85 -27.6,0 -53.86,12.02 -68.99,34.72 l -0.89,0 0,-109.49 -63.21,0 0,311.12"
             style="fill:#100f0d;fill-opacity:1;fill-rule:nonzero;stroke:none"
             id="path36" /><path
             d="m 2455.19,1444.75 c -5.79,32.04 -19.58,48.96 -50.3,48.96 -40.06,0 -51.63,-31.17 -52.52,-48.96 l 102.82,0 z m -102.82,-40.06 c 1.78,-40.06 21.37,-58.31 56.53,-58.31 25.37,0 45.85,15.58 49.85,29.82 l 55.64,0 c -17.81,-54.3 -55.64,-77.45 -107.72,-77.45 -72.55,0 -117.5,49.85 -117.5,121.07 0,68.99 47.62,121.51 117.5,121.51 78.34,0 116.18,-65.88 111.72,-136.64 l -166.02,0"
             style="fill:#100f0d;fill-opacity:1;fill-rule:nonzero;stroke:none"
             id="path38" /><path
             d="m 2546.86,1535.1 60.09,0 0,-32.05 1.34,0 c 16.02,25.82 43.61,38.28 70.32,38.28 67.21,0 84.12,-37.83 84.12,-94.8 l 0,-141.55 -63.2,0 0,129.98 c 0,37.83 -11.13,56.52 -40.5,56.52 -34.27,0 -48.96,-19.13 -48.96,-65.87 l 0,-120.63 -63.21,0 0,230.12"
             style="fill:#100f0d;fill-opacity:1;fill-rule:nonzero;stroke:none"
             id="path40" /><path
             d="m 2910.93,1493.71 c -41.39,0 -55.64,-35.61 -55.64,-73.45 0,-36.05 16.47,-73.88 55.64,-73.88 41.84,0 54.3,36.5 54.3,74.33 0,37.39 -13.35,73 -54.3,73 z m 55.19,-159.35 -0.89,0 c -14.68,-24.92 -40.5,-35.61 -69.88,-35.61 -69.43,0 -103.26,59.65 -103.26,123.3 0,61.86 34.27,119.28 101.93,119.28 27.15,0 53.86,-11.57 68.54,-34.28 l -0.44,0 0.89,0 0,115.74 63.2,0 0,-317.81 -60.09,0 0,29.38"
             style="fill:#100f0d;fill-opacity:1;fill-rule:nonzero;stroke:none"
             id="path42" /><path
             d="m 3219.81,1444.75 c -5.79,32.04 -19.59,48.96 -50.3,48.96 -40.06,0 -51.63,-31.17 -52.52,-48.96 l 102.82,0 z m -102.82,-40.06 c 1.78,-40.06 21.36,-58.31 56.53,-58.31 25.37,0 45.85,15.58 49.85,29.82 l 55.64,0 c -17.81,-54.3 -55.64,-77.45 -107.72,-77.45 -72.55,0 -117.5,49.85 -117.5,121.07 0,68.99 47.62,121.51 117.5,121.51 78.34,0 116.18,-65.88 111.72,-136.64 l -166.02,0"
             style="fill:#100f0d;fill-opacity:1;fill-rule:nonzero;stroke:none"
             id="path44" /><path
             d="m 3311.48,1535.1 60.09,0 0,-32.05 1.34,0 c 16.02,25.82 43.61,38.28 70.32,38.28 67.21,0 84.12,-37.83 84.12,-94.8 l 0,-141.55 -63.2,0 0,129.98 c 0,37.83 -11.13,56.52 -40.5,56.52 -34.27,0 -48.96,-19.13 -48.96,-65.87 l 0,-120.63 -63.21,0 0,230.12"
             style="fill:#100f0d;fill-opacity:1;fill-rule:nonzero;stroke:none"
             id="path46" /><path
             d="m 3646.62,1535.1 46.29,0 0,-42.28 -46.29,0 0,-113.95 c 0,-21.37 5.34,-26.7 26.71,-26.7 6.67,0 12.9,0.44 19.58,1.78 l 0,-49.41 c -10.68,-1.78 -24.48,-2.23 -36.94,-2.23 -38.73,0 -72.56,8.9 -72.56,54.74 l 0,135.77 -38.27,0 0,42.28 38.27,0 0,68.99 63.21,0 0,-68.99"
             style="fill:#100f0d;fill-opacity:1;fill-rule:nonzero;stroke:none"
             id="path48" /><path
             d="m 3716.04,1304.98 63.2031,0 0,317.809 -63.2031,0 0,-317.809 z"
             style="fill:#100f0d;fill-opacity:1;fill-rule:nonzero;stroke:none"
             id="path50" /><path
             d="m 3933.69,1276.06 c -13.8,-36.95 -35.61,-52.08 -79.23,-52.08 -12.91,0 -25.82,0.89 -38.72,2.23 l 0,52.08 c 12.01,-0.9 24.47,-2.68 36.94,-2.23 21.81,2.23 28.93,24.92 21.81,43.16 l -81.01,215.88 67.66,0 52.07,-157.57 0.89,0 50.3,157.57 65.43,0 -96.14,-259.04"
             style="fill:#100f0d;fill-opacity:1;fill-rule:nonzero;stroke:none"
             id="path52" /><path
             d="m 4268.83,1346.38 c 43.17,0 56.08,36.94 56.08,73.44 0,36.94 -12.91,73.89 -56.08,73.89 -42.73,0 -55.64,-36.95 -55.64,-73.89 0,-36.5 12.91,-73.44 55.64,-73.44 z m 0,194.95 c 72.55,0 119.29,-48.06 119.29,-121.51 0,-73 -46.74,-121.07 -119.29,-121.07 -72.11,0 -118.84,48.07 -118.84,121.07 0,73.45 46.73,121.51 118.84,121.51"
             style="fill:#100f0d;fill-opacity:1;fill-rule:nonzero;stroke:none"
             id="path54" /><path
             d="m 4411.24,1535.1 60.09,0 0,-42.73 0.89,0 c 11.57,28.93 42.73,48.96 73.44,48.96 4.45,0 9.79,-0.89 13.79,-2.22 l 0,-58.75 c -5.78,1.32 -15.13,2.22 -22.7,2.22 -46.29,0 -62.31,-33.38 -62.31,-73.88 l 0,-103.72 -63.2,0 0,230.12"
             style="fill:#100f0d;fill-opacity:1;fill-rule:nonzero;stroke:none"
             id="path56" /><path
             d="m 4736.59,1422.93 c 0,37.4 -12.91,70.78 -53.86,70.78 -35.6,0 -51.18,-31.17 -51.18,-65.43 0,-32.94 12.46,-69 51.18,-69 36.06,0 53.86,30.72 53.86,63.65 z m 60.09,-103.26 c 0,-37.83 -13.35,-101.92 -119.29,-101.92 -45.4,0 -98.36,21.36 -101.48,73.88 l 62.76,0 c 5.79,-23.59 24.92,-31.61 47.18,-31.61 35.17,0 51.19,24.05 50.74,56.98 l 0,30.27 -0.89,0 c -13.8,-24.04 -41.39,-35.61 -68.99,-35.61 -68.99,0 -98.37,52.52 -98.37,115.73 0,59.65 34.28,113.94 98.82,113.94 30.26,0 53.41,-10.23 68.54,-36.94 l 0.89,0 0,30.71 60.09,0 0,-215.43"
             style="fill:#100f0d;fill-opacity:1;fill-rule:nonzero;stroke:none"
             id="path58" /><path
             d="m 4972.92,1417.6 c -10.68,-9.35 -32.94,-9.8 -52.52,-13.36 -19.59,-4 -37.39,-10.68 -37.39,-33.83 0,-23.59 18.25,-29.37 38.72,-29.37 49.41,0 51.19,39.16 51.19,52.97 l 0,23.59 z m -145.99,46.73 c 3.56,59.2 56.52,77 108.15,77 45.85,0 101.04,-10.23 101.04,-65.43 l 0,-119.72 c 0,-20.92 2.23,-41.85 8.02,-51.2 l -64.1,0 c -2.23,7.12 -4,14.69 -4.45,22.26 -20.03,-20.93 -49.41,-28.49 -77.45,-28.49 -43.62,0 -78.34,21.81 -78.34,68.99 0,52.08 39.17,64.55 78.34,69.88 38.73,5.79 74.78,4.45 74.78,30.27 0,27.15 -18.7,31.16 -40.95,31.16 -24.04,0 -39.62,-9.79 -41.84,-34.72 l -63.2,0"
             style="fill:#100f0d;fill-opacity:1;fill-rule:nonzero;stroke:none"
             id="path60" /><path
             d="m 5076.16,1535.1 60.09,0 0,-32.05 1.34,0 c 16.02,25.82 43.62,38.28 70.33,38.28 67.2,0 84.12,-37.83 84.12,-94.8 l 0,-141.55 -63.21,0 0,129.98 c 0,37.83 -11.12,56.52 -40.5,56.52 -34.27,0 -48.96,-19.13 -48.96,-65.87 l 0,-120.63 -63.21,0 0,230.12"
             style="fill:#100f0d;fill-opacity:1;fill-rule:nonzero;stroke:none"
             id="path62" /><path
             d="m 5324.06,1535.1 63.21,0 0,-230.12 -63.21,0 0,230.12 z m 63.21,35.61 -63.21,0 0,52.08 63.21,0 0,-52.08"
             style="fill:#100f0d;fill-opacity:1;fill-rule:nonzero;stroke:none"
             id="path64" /><path
             d="m 5413.96,1352.61 119.74,134.86 -110.83,0 0,47.63 194.06,0 0,-47.63 -119.73,-134.86 128.19,0 0,-47.63 -211.43,0 0,47.63"
             style="fill:#100f0d;fill-opacity:1;fill-rule:nonzero;stroke:none"
             id="path66" /><path
             d="m 5805.19,1444.75 c -5.78,32.04 -19.58,48.96 -50.29,48.96 -40.06,0 -51.63,-31.17 -52.52,-48.96 l 102.81,0 z m -102.81,-40.06 c 1.78,-40.06 21.37,-58.31 56.52,-58.31 25.37,0 45.85,15.58 49.85,29.82 l 55.64,0 c -17.8,-54.3 -55.64,-77.45 -107.72,-77.45 -72.54,0 -117.5,49.85 -117.5,121.07 0,68.99 47.63,121.51 117.5,121.51 78.34,0 116.18,-65.88 111.73,-136.64 l -166.02,0"
             style="fill:#100f0d;fill-opacity:1;fill-rule:nonzero;stroke:none"
             id="path68" /><path
             d="m 6005.92,1493.71 c -41.39,0 -55.63,-35.61 -55.63,-73.45 0,-36.05 16.46,-73.88 55.63,-73.88 41.84,0 54.3,36.5 54.3,74.33 0,37.39 -13.35,73 -54.3,73 z m 55.2,-159.35 -0.9,0 c -14.69,-24.92 -40.5,-35.61 -69.87,-35.61 -69.45,0 -103.27,59.65 -103.27,123.3 0,61.86 34.27,119.28 101.93,119.28 27.15,0 53.86,-11.57 68.54,-34.28 l -0.45,0 0.89,0 0,115.74 63.22,0 0,-317.81 -60.09,0 0,29.38"
             style="fill:#100f0d;fill-opacity:1;fill-rule:nonzero;stroke:none"
             id="path70" /><path
             d="m 6351.73,1564.03 -95.24,0 0,58.76 260.38,0 0,-58.76 -95.25,0 0,-259.05 -69.89,0 0,259.05"
             style="fill:#100f0d;fill-opacity:1;fill-rule:nonzero;stroke:none"
             id="path72" /><path
             d="m 6544.44,1622.79 237.68,0 0,-58.76 -167.8,0 0,-68.1 154.01,0 0,-54.3 -154.01,0 0,-77.9 171.36,0 0,-58.75 -241.24,0 0,317.81"
             style="fill:#100f0d;fill-opacity:1;fill-rule:nonzero;stroke:none"
             id="path74" /><path
             d="m 6884.93,1363.73 62.31,0 c 40.5,0 79.23,24.93 79.23,95.26 0,64.1 -22.26,105.04 -91.7,105.04 l -49.84,0 0,-200.3 z m -69.89,259.06 137.09,0 c 82.35,0 144.21,-51.63 144.21,-157.12 0,-92.14 -47.17,-160.69 -144.21,-160.69 l -137.09,0 0,317.81"
             style="fill:#100f0d;fill-opacity:1;fill-rule:nonzero;stroke:none"
             id="path76" /><path
             d="m 7398.98,1444.75 c -5.78,32.04 -19.58,48.96 -50.29,48.96 -40.06,0 -51.63,-31.17 -52.52,-48.96 l 102.81,0 z m -102.81,-40.06 c 1.77,-40.06 21.36,-58.31 56.52,-58.31 25.37,0 45.85,15.58 49.85,29.82 l 55.64,0 c -17.8,-54.3 -55.64,-77.45 -107.72,-77.45 -72.54,0 -117.5,49.85 -117.5,121.07 0,68.99 47.63,121.51 117.5,121.51 78.34,0 116.18,-65.88 111.73,-136.64 l -166.02,0"
             style="fill:#100f0d;fill-opacity:1;fill-rule:nonzero;stroke:none"
             id="path78" /><path
             d="m 7609.06,1304.98 -70.33,0 -78.78,230.12 66.31,0 48.52,-157.12 0.89,0 48.51,157.12 62.77,0 -77.89,-230.12"
             style="fill:#100f0d;fill-opacity:1;fill-rule:nonzero;stroke:none"
             id="path80" /><path
             d="m 7850.28,1444.75 c -5.78,32.04 -19.58,48.96 -50.29,48.96 -40.06,0 -51.64,-31.17 -52.52,-48.96 l 102.81,0 z m -102.81,-40.06 c 1.77,-40.06 21.36,-58.31 56.52,-58.31 25.37,0 45.85,15.58 49.85,29.82 l 55.64,0 c -17.81,-54.3 -55.64,-77.45 -107.72,-77.45 -72.55,0 -117.5,49.85 -117.5,121.07 0,68.99 47.63,121.51 117.5,121.51 78.34,0 116.17,-65.88 111.72,-136.64 l -166.01,0"
             style="fill:#100f0d;fill-opacity:1;fill-rule:nonzero;stroke:none"
             id="path82" /><path
             d="m 7941.96,1535.1 60.09,0 0,-32.05 1.33,0 c 16.03,25.82 43.63,38.28 70.33,38.28 67.21,0 84.13,-37.83 84.13,-94.8 l 0,-141.55 -63.21,0 0,129.98 c 0,37.83 -11.13,56.52 -40.5,56.52 -34.28,0 -48.97,-19.13 -48.97,-65.87 l 0,-120.63 -63.2,0 0,230.12"
             style="fill:#100f0d;fill-opacity:1;fill-rule:nonzero;stroke:none"
             id="path84" /><path
             d="m 8277.09,1535.1 46.29,0 0,-42.28 -46.29,0 0,-113.95 c 0,-21.37 5.35,-26.7 26.71,-26.7 6.68,0 12.91,0.44 19.58,1.78 l 0,-49.41 c -10.67,-1.78 -24.47,-2.23 -36.94,-2.23 -38.72,0 -72.55,8.9 -72.55,54.74 l 0,135.77 -38.28,0 0,42.28 38.28,0 0,68.99 63.2,0 0,-68.99"
             style="fill:#100f0d;fill-opacity:1;fill-rule:nonzero;stroke:none"
             id="path86" /><path
             d="m 794.215,4029.2 -296.547,0 0,271.21 918.792,0 0,-271.21 -296.44,0 0,-786.95 -325.805,0 0,786.95"
             style="fill:#ee2922;fill-opacity:1;fill-rule:nonzero;stroke:none"
             id="path88" /><path
             d="m 1467.1,4300.41 891.92,0 0,-271.21 -565.9,0 0,-131.86 565.9,0 0,-252.02 -565.9,0 0,-131.87 566.05,0 0,-271.2 -892.07,0 0,1058.16"
             style="fill:#ee2922;fill-opacity:1;fill-rule:nonzero;stroke:none"
             id="path90" /><path
             d="m 2739.89,3513.45 127.5,0 c 203.09,0 232.78,164.56 232.78,263.96 0,66.56 -20.86,251.79 -256.52,251.79 l -103.76,0 0,-515.75 z m -326,786.96 535,0 c 352.66,0 477.3,-260.84 477.3,-527.52 0,-324.66 -171.92,-530.64 -540.96,-530.64 l -471.34,0 0,1058.16"
             style="fill:#ee2922;fill-opacity:1;fill-rule:nonzero;stroke:none"
             id="path92" /><path
             d="m 3894.64,3650.02 -99.45,164.92 -96.98,-164.92 -238.87,0 226.77,333.46 -218.36,318.97 238.95,0 88.49,-157.67 91.03,157.67 238.88,0 -218.29,-318.97 226.76,-333.46 -238.93,0"
             style="fill:#ee2922;fill-opacity:1;fill-rule:nonzero;stroke:none"
             id="path94" /><g
             id="g96"
             transform="scale(10,10)"><text
               transform="scale(1,-1)"
               id="text98"
               x="37.93441"
               y="-191.70799"><tspan
                 style="font-size:146.90499878px;font-variant:normal;font-weight:normal;writing-mode:lr-tb;fill:#100f0d;fill-opacity:1;fill-rule:nonzero;stroke:none;font-family:Helvetica;-inkscape-font-specification:Helvetica"
                 sodipodi:role="line"
                 id="tspan100"
                 x="37.93441"
                 y="-191.70799">FiDiWomen</tspan></text>
</g></g></g></g></g></svg>